<?xml version="1.0" encoding="utf-8"?>
<!-- Generator: Adobe Illustrator 23.0.0, SVG Export Plug-In . SVG Version: 6.00 Build 0)  -->
<svg version="1.1" id="Layer_1" xmlns="http://www.w3.org/2000/svg" xmlns:xlink="http://www.w3.org/1999/xlink" x="0px" y="0px"
	 viewBox="0 0 576 576" style="enable-background:new 0 0 576 576;" xml:space="preserve">
<style type="text/css">
	.st0{fill:#FFFFFF;}
	.st1{fill:none;stroke:#FFFFFF;stroke-miterlimit:10;}
</style>
<path class="st0" d="M288,576C129.2,576,0,446.8,0,288S129.2,0,288,0s288,129.2,288,288S446.8,576,288,576z M288,25.6
	C143.3,25.6,25.6,143.3,25.6,288S143.3,550.4,288,550.4S550.4,432.7,550.4,288S432.7,25.6,288,25.6z"/>
<polygon class="st0" points="288.5,356.2 179.2,247 197.3,228.9 288.5,320 378.7,229.8 396.8,247.9 "/>
<circle class="st1" cx="582.4" cy="-136.5" r="10.8"/>
<polyline class="st1" points="578.5,-138.5 582.4,-134.6 586.3,-138.4 "/>
</svg>
