<?xml version="1.0" encoding="utf-8"?>
<!-- Generator: Adobe Illustrator 23.0.0, SVG Export Plug-In . SVG Version: 6.00 Build 0)  -->
<svg version="1.1" id="Layer_1" xmlns="http://www.w3.org/2000/svg" xmlns:xlink="http://www.w3.org/1999/xlink" x="0px" y="0px"
	 viewBox="0 0 360 360" style="enable-background:new 0 0 360 360;" xml:space="preserve">
<style type="text/css">
	.st0{fill:#FFFFFF;}
</style>
<g>
	<path class="st0" d="M180,0C80.5,0,0,80.5,0,180s80.5,180,180,180s180-80.5,180-180S279.5,0,180,0z M284.1,253
		c-9.3,8.7-22.2,12.7-38.2,12c-20.1-1-40.6-23.9-47.1-49.6c-0.6,3.3-1.2,7-1.7,10.6c-3.3,20.3-6.6,41.1-14.3,51.8
		c-1.4,1.9-3.7,2.9-5.8,2.9c-1.5,0-3.1-0.4-4.2-1.4c-3.3-2.3-3.9-7-1.5-10.2c5-6.8,8.1-23.2,10.6-39c-23.9,23.8-53.7,40.4-83,37.1
		c-23.2-2.7-34.2-14.5-39.4-23.9c-9.5-17.6-7.5-42.5,5.4-68.2c15.3-30.1,48.3-49.1,73.6-42.3c8.3,2.3,27.2,10.8,25.1,42.7
		c-0.2,4.1-3.7,7-7.7,6.8c-4.1-0.2-7-3.7-6.8-7.7c0.8-10.6-1.4-24.1-14.5-27.8c-16.6-4.6-43.5,8.3-56.8,34.8
		C67,202.4,64.9,222.9,72,236.2c5,9.3,14.5,14.9,28.2,16.4c23.2,2.7,56.8-12,85.8-48.9c0.4-2.7,1.2-10.4,1.9-18.2
		c1.5-15.6,3.5-36.9,6-54.5c3.9-26.7,10.6-71.5,36.5-71.5c6,0,11,2.5,14.5,7.3c11.8,16.2,1.2,52.5-1.2,59.7
		c-2.7,8.3-7.1,18.3-12.2,28.4c1.2,0,2.3,0,3.1,0.2c9.5,1.4,17,9.7,18.3,20.7c1.2,8.7-3.3,17-12.4,22.6c-8.1,5-20.1,7.9-29.4,6.2
		c1.2,10.4,5.6,21.2,12.4,30.1c7.1,9.3,15.8,15.3,22.8,15.6c12,0.6,21.1-1.9,27.2-7.7c7-6.4,8.5-15.3,8.5-17.4
		c0-4.1,3.3-7.1,7.3-7.1s7.1,3.3,7.1,7.1C297,229.6,294.7,243,284.1,253z"/>
	<path class="st0" d="M213,189.7c0,0.2-0.2,0.2-0.2,0.4c2.7,1.2,11.2,1.2,18.9-3.1c2.9-1.5,7.5-4.8,7-9.1c-0.6-4.4-3.1-7.7-6.2-8.3
		C228.3,168.8,220.6,173.6,213,189.7z"/>
	<path class="st0" d="M233.3,75.3c-0.8-1-1.4-1.4-2.7-1.4c-13.5,0-20.1,44.4-22.2,59.1c-1.9,13.5-3.7,29.5-5,43.1
		c9.3-15.6,21.6-38.6,26.7-54.3C236.4,102.2,237.9,81.7,233.3,75.3z"/>
</g>
</svg>
